<svg width="17" height="18" viewBox="0 0 17 18" fill="none" xmlns="http://www.w3.org/2000/svg">
<g id="trash-2">
<path id="Vector" d="M2.09003 4.98004H3.43003H14.15" stroke="#002184" stroke-width="1.34" stroke-linecap="round" stroke-linejoin="round"/>
<path id="Vector_2" d="M12.8101 4.98005V14.36C12.8101 14.7154 12.6689 15.0563 12.4176 15.3076C12.1663 15.5589 11.8255 15.7 11.4701 15.7H4.77006C4.41467 15.7 4.07383 15.5589 3.82253 15.3076C3.57123 15.0563 3.43005 14.7154 3.43005 14.36V4.98005M5.44006 4.98005V3.64005C5.44006 3.28466 5.58124 2.94382 5.83254 2.69253C6.08384 2.44123 6.42467 2.30005 6.78006 2.30005H9.46007C9.81546 2.30005 10.1563 2.44123 10.4076 2.69253C10.6589 2.94382 10.8001 3.28466 10.8001 3.64005V4.98005" stroke="#002184" stroke-width="1.34" stroke-linecap="round" stroke-linejoin="round"/>
<path id="Vector_3" d="M6.78003 8.33002V12.35" stroke="#002184" stroke-width="1.34" stroke-linecap="round" stroke-linejoin="round"/>
<path id="Vector_4" d="M9.46002 8.33002V12.35" stroke="#002184" stroke-width="1.34" stroke-linecap="round" stroke-linejoin="round"/>
</g>
</svg>
